<?xml version="1.0" encoding="UTF-8" standalone="no"?>
<!-- Created with Inkscape (http://www.inkscape.org/) -->
<svg id="svg2" xmlns:rdf="http://www.w3.org/1999/02/22-rdf-syntax-ns#" xmlns="http://www.w3.org/2000/svg" height="100" width="100" version="1.1" xmlns:cc="http://creativecommons.org/ns#" xmlns:dc="http://purl.org/dc/elements/1.1/">
 <metadata id="metadata7">
  <rdf:RDF>
   <cc:Work rdf:about="">
    <dc:format>image/svg+xml</dc:format>
    <dc:type rdf:resource="http://purl.org/dc/dcmitype/StillImage"/>
    <dc:title/>
   </cc:Work>
  </rdf:RDF>
 </metadata>
 <g id="layer1" transform="translate(0,-952.36218)">
  <g id="g3788" transform="matrix(1.4547689,0,0,1.6325036,-21.179764,-631.66545)">
   <path id="path3997" fill="#22beff" d="m33.861,1005.7-8.945,13.356c-4.1156,4.982-1.2807,12.068,7.8713,11.33,0.4756-0.035,30.89-0.1155,30.89-0.1155,12.339,0.4369,11.756-8.2264,8.3464-12.287l-8.2274-12.046-29.935-0.2386z" fill-rule="evenodd"/>
   <path id="rect3162" stroke-linejoin="round" d="m38.538,971.82c3.2815,3.2219,2.7863,5.657,2.822,9.5567l0.1125,12.315-15.982,23.941c-3.8676,6.448-1.251,12.756,5.0925,12.384l36.685,0.035c6.8553-0.025,9.3614-6.3782,4.0479-13.075l-15.161-23.15-0.286-12.33c-0.03566-3.8997-0.57504-6.3255,2.6467-9.607l-19.976,0.0104z" stroke="#000" stroke-linecap="round" stroke-width="3.01331711" fill="none"/>
   <path id="path3180" d="M55.844,981.24h-5.477" stroke="#000" stroke-linecap="round" stroke-width="3.01331711" fill="none"/>
   <path id="path3182" d="M55.844,990.9h-5.477" stroke="#000" stroke-linecap="round" stroke-width="3.01331711" fill="none"/>
   <path id="path3184" d="M58.949,1000.9h-5.4768" stroke="#000" stroke-linecap="round" stroke-width="3.01331711" fill="none"/>
   <path id="path3186" d="M64.297,1008.7h-5.4776" stroke="#000" stroke-linecap="round" stroke-width="3.01331711" fill="none"/>
   <path id="path3188" d="M69.643,1016.4h-5.476" stroke="#000" stroke-linecap="round" stroke-width="3.01331711" fill="none"/>
  </g>
 </g>
</svg>
